<?xml version="1.0" encoding="UTF-8"?>
<svg id="_レイヤー_2" xmlns="http://www.w3.org/2000/svg" version="1.1" viewBox="0 0 800 600">
  <!-- Generator: Adobe Illustrator 29.4.0, SVG Export Plug-In . SVG Version: 2.1.0 Build 152)  -->
  <defs>
    <style>
      .st0 {
        fill: #0084cf;
      }
    </style>
  </defs>
  <g>
    <path d="M250,493.4v-103.8h42.4c12.2,0,21.9,3.3,29,9.9,7.1,6.6,10.7,15.3,10.7,26v.3c0,5.8-1.1,11.1-3.3,15.8-2.2,4.7-5.2,8.5-9,11.5-3.8,3-8.3,5.3-13.3,6.8s-10.5,2.4-16.4,2.4h-17.4v31.1h-22.8ZM272.8,441.9h18.1c5.6,0,10-1.5,13.2-4.4,3.2-3,4.9-6.7,4.9-11.3v-.3c0-5-1.6-8.9-4.9-11.6-3.3-2.7-7.8-4.1-13.6-4.1h-17.7v31.7h0Z"/>
    <path d="M421.5,490.9c-6.9,2.9-14.3,4.3-22.1,4.3s-15.2-1.4-22-4.2c-6.9-2.8-12.7-6.6-17.5-11.4-4.8-4.8-8.5-10.5-11.3-17-2.8-6.6-4.1-13.5-4.1-20.8v-.3c0-7.3,1.4-14.2,4.2-20.8,2.8-6.6,6.6-12.3,11.4-17.1s10.7-8.6,17.6-11.5c6.9-2.8,14.3-4.2,22.1-4.2s19.9,2.4,28.3,7.2,15,11.2,19.7,19.4c4.7,8.1,7,17.1,7,26.8v.3c0,7.3-1.4,14.2-4.2,20.8-2.8,6.6-6.6,12.3-11.4,17.1-4.8,4.8-10.7,8.7-17.6,11.5h0ZM383.5,469.7c4.8,3,10.2,4.5,16.2,4.5s11.4-1.5,16.2-4.4,8.5-6.8,11.1-11.8c2.6-4.9,3.9-10.3,3.9-16.2v-.3c0-9-3-16.7-8.9-23.1s-13.5-9.5-22.5-9.5-11.4,1.5-16.1,4.3c-4.8,2.9-8.5,6.8-11.1,11.7-2.6,4.9-3.9,10.3-3.9,16.2v.3c0,5.9,1.3,11.3,4,16.3,2.6,5,6.4,8.9,11.2,11.9h0Z"/>
    <path d="M511.9,494.8c-8,0-15.8-1.4-23.5-4.2-7.6-2.8-14.5-6.9-20.6-12.4l13.5-16.1c10.2,8.4,20.6,12.6,31,12.6s8.3-.9,11-2.6,4-4.1,4-7.2v-.3c0-2-.5-3.7-1.6-5.1s-3.1-2.7-6.1-4-7.4-2.7-13.2-4.2c-3.3-.8-6.1-1.6-8.5-2.4s-4.9-1.6-7.4-2.7c-2.6-1-4.7-2.1-6.4-3.2-1.7-1.1-3.4-2.4-5-4-1.6-1.5-2.9-3.2-3.9-5.1-1-1.9-1.7-4-2.3-6.4-.5-2.4-.8-5.1-.8-8v-.3c0-9.4,3.4-16.9,10.2-22.7s15.5-8.6,26.2-8.6,27.6,4.4,38.5,13.2l-11.9,17.2c-9.9-6.9-18.9-10.3-26.9-10.3s-7.5.9-9.9,2.5c-2.3,1.7-3.5,3.9-3.5,6.5v.3c0,3.3,1.5,5.9,4.3,7.6,2.9,1.7,8.9,3.8,18.1,6.1,5.5,1.5,10.2,3,14.1,4.7,3.8,1.7,7.2,3.7,10.2,6.1,2.9,2.4,5.1,5.3,6.5,8.6s2.1,7.2,2.1,11.7v.3c0,10.1-3.5,18-10.5,23.6-7,5.7-16.2,8.5-27.6,8.5h0Z"/>
  </g>
  <g>
    <path class="st0" d="M266.8,282.6c6.3-17.3,22.9-29.7,42.4-29.7h181.6c20.2,0,37.3,13.3,43.1,31.6,10-9,16.1-22.5,16.1-40,0-30-24.3-51.7-54.3-51.7l-3.8-.2c.7-4.1,1.2-8.4,1.2-12.7,0-41.4-33.6-75-75-75s-59,19.9-69.9,47.9c-5.9-4.1-13-6.5-20.7-6.5-20,0-36.2,16.2-36.2,36.2s0,1.1,0,1.6c-23.8,5.8-41.5,27.2-41.5,52.7s6.5,35.3,16.8,45.9h0Z"/>
    <g>
      <circle class="st0" cx="492.8" cy="293.2" r="7.3"/>
      <path class="st0" d="M490.8,266.9h-181.6c-17.1,0-31.1,14-31.1,31.1s14,31.1,31.1,31.1h181.6c17.1,0,31.1-14,31.1-31.1s-14-31.1-31.1-31.1h0ZM492.8,307.5c-7.9,0-14.3-6.4-14.3-14.3s6.4-14.3,14.3-14.3,14.3,6.4,14.3,14.3-6.4,14.3-14.3,14.3Z"/>
    </g>
  </g>
</svg>