<?xml version="1.0" encoding="UTF-8"?>
<svg id="_レイヤー_2" xmlns="http://www.w3.org/2000/svg" version="1.1" viewBox="0 0 800 600">
  <!-- Generator: Adobe Illustrator 29.4.0, SVG Export Plug-In . SVG Version: 2.1.0 Build 152)  -->
  <defs>
    <style>
      .st0 {
        fill: #fff;
      }
    </style>
  </defs>
  <g>
    <path class="st0" d="M398.4,393.3v-118.2h48.3c13.9,0,24.9,3.8,33,11.2,8.1,7.5,12.2,17.4,12.2,29.6v.3c0,6.6-1.2,12.6-3.7,18-2.5,5.3-5.9,9.7-10.3,13.1-4.4,3.4-9.4,6-15.2,7.8-5.7,1.8-12,2.7-18.7,2.7h-19.8v35.4h-26,0ZM424.4,334.7h20.6c6.4,0,11.4-1.7,15.1-5s5.5-7.6,5.5-12.9v-.3c0-5.7-1.9-10.1-5.6-13.2-3.7-3.1-8.9-4.7-15.5-4.7h-20.1v36.1h0Z"/>
    <path class="st0" d="M593.7,390.5c-7.9,3.2-16.2,4.9-25.1,4.9s-17.3-1.6-25.1-4.8c-7.8-3.2-14.5-7.5-19.9-13s-9.7-11.9-12.9-19.4c-3.1-7.5-4.7-15.4-4.7-23.7v-.3c0-8.3,1.6-16.2,4.7-23.7,3.2-7.5,7.5-14,13-19.5,5.5-5.5,12.2-9.9,20-13.1,7.9-3.2,16.2-4.8,25.1-4.8s22.6,2.7,32.2,8.2,17.1,12.8,22.4,22c5.3,9.3,8,19.4,8,30.5v.3c0,8.3-1.6,16.2-4.8,23.7s-7.5,14-13,19.5-12.2,9.9-20,13.1h0ZM550.4,366.3c5.5,3.4,11.7,5.1,18.5,5.1s13-1.7,18.4-5,9.7-7.8,12.7-13.4c3-5.6,4.5-11.8,4.5-18.5v-.3c0-10.3-3.4-19-10.2-26.2s-15.3-10.8-25.7-10.8-12.9,1.6-18.4,4.9c-5.4,3.3-9.6,7.8-12.6,13.4-3,5.6-4.5,11.8-4.5,18.5v.3c0,6.7,1.5,12.9,4.5,18.5s7.3,10.2,12.8,13.6h0Z"/>
    <path class="st0" d="M696.6,395c-9.1,0-18-1.6-26.7-4.8-8.7-3.2-16.5-7.9-23.4-14.1l15.3-18.4c11.7,9.6,23.4,14.3,35.3,14.3s9.5-1,12.5-3,4.5-4.7,4.5-8.2v-.3c0-2.3-.6-4.2-1.8-5.8-1.2-1.5-3.5-3.1-7-4.6-3.4-1.5-8.5-3.1-15-4.7-3.7-.9-7-1.8-9.7-2.7-2.7-.9-5.5-1.9-8.5-3-2.9-1.2-5.3-2.4-7.3-3.7-2-1.3-3.9-2.8-5.7-4.5-1.8-1.8-3.3-3.7-4.4-5.8s-2-4.5-2.6-7.3c-.6-2.7-1-5.8-1-9.1v-.3c0-10.7,3.9-19.3,11.6-25.8,7.7-6.5,17.7-9.8,29.8-9.8s31.4,5,43.8,15l-13.5,19.6c-11.3-7.8-21.5-11.7-30.7-11.7s-8.6,1-11.2,2.9c-2.7,1.9-4,4.4-4,7.4v.3c0,3.8,1.7,6.7,4.9,8.6,3.3,2,10.2,4.3,20.6,6.9,6.3,1.6,11.7,3.4,16,5.3,4.4,1.9,8.2,4.2,11.6,7,3.3,2.8,5.8,6,7.4,9.9s2.4,8.3,2.4,13.3v.3c0,11.5-4,20.5-11.9,26.9-7.9,6.5-18.4,9.7-31.5,9.7h0Z"/>
  </g>
  <g>
    <path class="st0" d="M401.2,243.6c6-3.2,11.5-7.1,16.3-11.6,6.6,5.4,10.5,8.8,12.1,10.2l.5.4,3.2-3.5-.5-.4c-5.2-4.4-9.2-7.8-12-10.1,3.1-3.4,5.4-6.6,6.8-9.4l.2-.4-2.1-3.2h-.4c-4.8.6-12,.9-21.4,1.1h-.7v4.8h.7c5.8-.1,11.6-.4,17.1-.7-5.4,7.5-12.8,13.7-22,18.6l-.6.3,2.2,4.2.6-.3h0Z"/>
    <path class="st0" d="M449.6,225.1c8.5-.6,17.8-1.3,27.5-2.1l-8.7,9.4-5.4-5.4-3.4,3.3,6.1,6c2.1,2.1,3.8,4.1,5.1,5.9l.4.5,3.9-2.5-.4-.6c-.8-1.2-1.8-2.5-3-3.8l13.1-14.2-2.3-3.7h-.4c-4.6.5-10.2,1-16.4,1.5-1.6.1-7.1.5-16.4,1.1h-.7c0,0,.3,4.8.3,4.8h.7s0,0,0,0Z"/>
    <path class="st0" d="M531.4,224.7c-5.8,4.7-12.6,8.8-20.5,12.2,0-4.3.1-8.2.1-11.6s0-7.7-.2-9.8v-.7s-4.9.4-4.9.4v.7c.2,1.8.2,4.2.2,7.3,0,6.4,0,12.2-.2,17.2v.4l3,2.2h.3c4.2-1.6,8.6-3.7,13.2-6.3,4.4-2.6,8.5-5.3,12-8.2l.5-.4-3.1-3.8-.5.4h0Z"/>
    <polygon class="st0" points="586.9 216.9 581.7 211.1 578.7 213.9 583.8 219.6 586.9 216.9"/>
    <polygon class="st0" points="591.9 214.1 586.8 208.3 583.7 211 588.9 216.8 591.9 214.1"/>
    <path class="st0" d="M555.4,240.4l1.3,4.4.6-.2c4.8-1.4,10-4.1,15.5-8,3.4-2.5,7.9-6.3,13.3-11.3l.5-.4-3.2-3.5-.5.4c-5.2,4.8-9.4,8.4-12.6,10.7-5.1,3.7-9.9,6.3-14.3,7.6l-.6.2h0Z"/>
    <polygon class="st0" points="564.4 227.6 556 222.3 553.5 226.2 561.9 231.4 564.4 227.6"/>
    <polygon class="st0" points="569.8 219.1 562.3 212.8 559.3 216.4 566.8 222.7 569.8 219.1"/>
    <path class="st0" d="M620.5,223c-1.4,0-2.6.5-3.5,1.5-1,1-1.5,2.2-1.5,3.5s.5,2.6,1.5,3.6c1,1,2.2,1.5,3.6,1.5s2.6-.5,3.5-1.5,1.5-2.2,1.5-3.6-.5-2.6-1.5-3.5c-1-1-2.2-1.5-3.5-1.5h0Z"/>
    <path class="st0" d="M707.9,242.9c6-3.2,11.5-7.1,16.3-11.6,6.6,5.4,10.5,8.8,12.2,10.2l.5.4,3.2-3.5-.5-.4c-5.2-4.4-9.2-7.8-12-10.1,3.1-3.4,5.4-6.6,6.8-9.4l.2-.4-2.2-3.2h-.4c-4.8.6-12,.9-21.4,1.1h-.7v4.8h.7c5.8-.1,11.6-.4,17.1-.7-5.4,7.5-12.8,13.7-22,18.6l-.6.3,2.2,4.2.6-.3h0Z"/>
    <g>
      <path class="st0" d="M692,219.4l-14.9.4v-8.5h-4.5v8.6l-15.1.5v4.5l15.1-.5v16h-4.2v4.3h.5c.4,0,.8,0,1.2,0,.9,0,1.8,0,2.7,0,.2,0,.4,0,.6,0,1.3,0,2.4-.5,3.2-1.6.3-.4.5-.8.5-1.4,0-5.8,0-11.6,0-17.4h0c0-.1,14.8-.7,14.8-.7v-4.4h0Z"/>
      <path class="st0" d="M688.7,217.9h0c3.1,0,5.6-2.5,5.6-5.6s-.6-2.9-1.7-4c-2.2-2.2-5.8-2.1-7.9,0-1.1,1.1-1.7,2.5-1.7,4,0,3.1,2.5,5.6,5.6,5.6h0ZM686.3,212.3c0-.7.2-1.3.7-1.8.4-.4,1-.6,1.7-.6h0c1.4,0,2.3.9,2.3,2.4,0,1.4-1,2.4-2.3,2.4h0c-.7,0-1.2-.2-1.7-.7-.4-.4-.7-1.1-.7-1.7h0Z"/>
      <polygon class="st0" points="681.1 230.4 690.1 240 693.5 237.1 684.3 227.3 681.1 230.4"/>
      <path class="st0" d="M663.2,230.1c-.9,1.1-1.7,2.2-2.6,3.4h0c-.8,1.1-1.7,2.1-2.6,3.1l-1.5,1.8,3.4,3.1,8.4-10.4-3.7-2.7-1.3,1.8h0Z"/>
    </g>
  </g>
  <g>
    <path class="st0" d="M74.4,356.3c5.4-14.9,19.7-25.5,36.4-25.5h155.7c17.3,0,32,11.4,37,27.1,8.5-7.8,13.8-19.3,13.8-34.3,0-25.7-20.9-44.4-46.6-44.4l-3.2-.2c.6-3.6,1-7.2,1-10.9,0-35.5-28.8-64.3-64.3-64.3s-50.6,17.1-59.9,41.1c-5-3.5-11.1-5.6-17.7-5.6-17.2,0-31.1,13.9-31.1,31.1s0,.9,0,1.4c-20.4,5-35.6,23.3-35.6,45.2s5.5,30.3,14.4,39.4h0Z"/>
    <g>
      <circle class="st0" cx="268.3" cy="365.4" r="6.3"/>
      <path class="st0" d="M266.5,342.8H110.8c-14.7,0-26.7,12-26.7,26.7s12,26.7,26.7,26.7h155.8c14.7,0,26.7-12,26.7-26.7s-12-26.7-26.7-26.7ZM268.3,377.6c-6.8,0-12.3-5.5-12.3-12.3s5.5-12.3,12.3-12.3,12.3,5.5,12.3,12.3-5.5,12.3-12.3,12.3Z"/>
    </g>
  </g>
</svg>