<?xml version="1.0" encoding="UTF-8"?>
<svg id="_レイヤー_2" xmlns="http://www.w3.org/2000/svg" version="1.1" viewBox="0 0 800 600">
  <!-- Generator: Adobe Illustrator 29.4.0, SVG Export Plug-In . SVG Version: 2.1.0 Build 152)  -->
  <defs>
    <style>
      .st0 {
        fill: #fff;
      }
    </style>
  </defs>
  <g>
    <path class="st0" d="M250,522.5v-103.8h42.4c12.2,0,21.9,3.3,29,9.9,7.1,6.6,10.7,15.3,10.7,26v.3c0,5.8-1.1,11.1-3.3,15.8-2.2,4.7-5.2,8.5-9,11.5-3.8,3-8.3,5.3-13.3,6.8s-10.5,2.4-16.4,2.4h-17.4v31.1h-22.8ZM272.8,471.1h18.1c5.6,0,10-1.5,13.2-4.4,3.2-3,4.9-6.7,4.9-11.3v-.3c0-5-1.6-8.9-4.9-11.6-3.3-2.7-7.8-4.1-13.6-4.1h-17.7v31.7h0Z"/>
    <path class="st0" d="M421.5,520.1c-6.9,2.8-14.3,4.3-22.1,4.3s-15.2-1.4-22-4.2-12.7-6.6-17.5-11.4c-4.8-4.8-8.5-10.5-11.3-17-2.8-6.6-4.1-13.5-4.1-20.8v-.3c0-7.3,1.4-14.2,4.2-20.8,2.8-6.6,6.6-12.3,11.4-17.1s10.7-8.6,17.6-11.5c6.9-2.8,14.3-4.2,22.1-4.2s19.9,2.4,28.3,7.2,15,11.2,19.7,19.4c4.7,8.1,7,17.1,7,26.8v.3c0,7.3-1.4,14.2-4.2,20.8-2.8,6.6-6.6,12.3-11.4,17.1-4.8,4.8-10.7,8.7-17.6,11.5h0ZM383.5,498.8c4.8,3,10.2,4.5,16.2,4.5s11.4-1.5,16.2-4.4,8.5-6.8,11.1-11.8c2.6-4.9,3.9-10.3,3.9-16.2v-.3c0-9-3-16.7-8.9-23.1s-13.5-9.5-22.5-9.5-11.4,1.5-16.1,4.3c-4.8,2.9-8.5,6.8-11.1,11.7-2.6,4.9-3.9,10.3-3.9,16.2v.3c0,5.9,1.3,11.3,4,16.3,2.6,5,6.4,8.9,11.2,11.9h0Z"/>
    <path class="st0" d="M511.9,524c-8,0-15.8-1.4-23.5-4.2-7.6-2.8-14.5-6.9-20.6-12.4l13.5-16.1c10.2,8.4,20.6,12.6,31,12.6s8.3-.9,11-2.6,4-4.1,4-7.2v-.3c0-2-.5-3.7-1.6-5.1s-3.1-2.7-6.1-4-7.4-2.7-13.2-4.2c-3.3-.8-6.1-1.6-8.5-2.4s-4.9-1.6-7.4-2.7c-2.6-1-4.7-2.1-6.4-3.2-1.7-1.1-3.4-2.4-5-4-1.6-1.5-2.9-3.2-3.9-5.1-1-1.9-1.7-4-2.3-6.4-.5-2.4-.8-5.1-.8-8v-.3c0-9.4,3.4-16.9,10.2-22.7s15.5-8.6,26.2-8.6,27.6,4.4,38.5,13.2l-11.9,17.2c-9.9-6.9-18.9-10.3-26.9-10.3s-7.5.9-9.9,2.5c-2.3,1.7-3.5,3.9-3.5,6.5v.3c0,3.3,1.5,5.9,4.3,7.6,2.9,1.7,8.9,3.8,18.1,6.1,5.5,1.5,10.2,3,14.1,4.7,3.8,1.7,7.2,3.7,10.2,6.1,2.9,2.4,5.1,5.3,6.5,8.6s2.1,7.2,2.1,11.7v.3c0,10.1-3.5,18-10.5,23.6-7,5.7-16.2,8.5-27.6,8.5h0Z"/>
  </g>
  <g>
    <path class="st0" d="M252.4,391c5.3-2.8,10.1-6.2,14.3-10.2,5.8,4.8,9.3,7.7,10.7,9l.4.4,2.8-3.1-.5-.4c-4.5-3.9-8.1-6.8-10.5-8.8,2.7-3,4.7-5.8,6-8.2v-.3c.1,0-1.7-2.8-1.7-2.8h-.4c-4.2.5-10.5.8-18.8.9h-.6v4.2h.6c5.1-.1,10.1-.3,15-.6-4.7,6.6-11.2,12-19.3,16.3l-.5.3,1.9,3.7.5-.3h0Z"/>
    <path class="st0" d="M295,374.8c7.5-.5,15.6-1.1,24.2-1.9l-7.7,8.2-4.8-4.8-2.9,2.9,5.4,5.3c1.8,1.9,3.3,3.6,4.5,5.2l.3.4,3.4-2.2-.3-.5c-.7-1.1-1.6-2.2-2.7-3.3l11.5-12.5-2-3.3h-.4c-4.1.5-8.9.9-14.4,1.3-1.4.1-6.2.4-14.4,1h-.6s.3,4.2.3,4.2h.6s0,0,0,0Z"/>
    <path class="st0" d="M366.8,374.4c-5,4.1-11.1,7.8-18,10.8,0-3.8.1-7.2.1-10.1s0-6.8-.2-8.6v-.6s-4.3.3-4.3.3v.6c.1,1.5.2,3.7.2,6.4,0,5.6,0,10.7-.2,15.1v.3l2.6,1.9h.3c3.7-1.4,7.6-3.3,11.6-5.6,3.9-2.2,7.4-4.7,10.5-7.2l.5-.4-2.7-3.3-.5.4h0Z"/>
    <polygon class="st0" points="415.5 367.6 411 362.5 408.4 364.9 412.8 369.9 415.5 367.6"/>
    <polygon class="st0" points="419.9 365.1 415.4 360 412.8 362.4 417.3 367.5 419.9 365.1"/>
    <path class="st0" d="M387.9,388.2l1.2,3.9.5-.2c4.3-1.2,8.8-3.6,13.6-7,3-2.2,6.9-5.5,11.7-9.9l.4-.4-2.8-3-.4.4c-4.6,4.2-8.3,7.4-11.1,9.4-4.5,3.3-8.7,5.5-12.6,6.7l-.6.2h0Z"/>
    <polygon class="st0" points="395.8 377 388.4 372.3 386.2 375.8 393.6 380.4 395.8 377"/>
    <polygon class="st0" points="400.5 369.5 394 364 391.3 367.1 397.9 372.6 400.5 369.5"/>
    <path class="st0" d="M445,372.9c-1.2,0-2.2.4-3.1,1.3s-1.3,1.9-1.3,3.1.4,2.3,1.3,3.1c.9.9,1.9,1.3,3.1,1.3s2.2-.4,3.1-1.3c.9-.9,1.3-1.9,1.3-3.1s-.4-2.2-1.3-3.1-1.9-1.3-3.1-1.3h0Z"/>
    <path class="st0" d="M521.8,390.4c5.3-2.8,10.1-6.2,14.3-10.2,5.8,4.8,9.3,7.7,10.7,9l.4.4,2.8-3.1-.5-.4c-4.5-3.9-8.1-6.8-10.5-8.8,2.7-3,4.7-5.8,6-8.2l.2-.3-1.9-2.8h-.3c-4.2.5-10.5.8-18.8.9h-.6v4.2h.7c5.1-.1,10.2-.3,15-.6-4.7,6.6-11.2,12-19.3,16.3l-.5.3,1.9,3.7.5-.3h0Z"/>
    <g>
      <path class="st0" d="M507.9,369.8l-13.1.4v-7.4h-3.9v7.6l-13.3.5v3.9l13.3-.5v14h-3.7v3.8h.5c.4,0,.7,0,1.1,0,.8,0,1.6,0,2.3,0,.2,0,.3,0,.5,0,1.2,0,2.1-.5,2.8-1.4.2-.3.5-.7.5-1.2,0-5.1,0-10.2,0-15.3h0c0-.1,13-.6,13-.6v-3.9h0Z"/>
      <path class="st0" d="M505,368.5h0c2.7,0,4.9-2.2,4.9-4.9,0-1.3-.5-2.6-1.5-3.5-1.9-1.9-5-1.9-6.9,0-.9,1-1.5,2.2-1.5,3.5,0,2.7,2.2,4.9,4.9,4.9ZM502.9,363.5c0-.6.2-1.2.6-1.5s.9-.6,1.5-.6h0c1.2,0,2,.8,2.1,2.1,0,1.2-.8,2.1-2.1,2.1h0c-.6,0-1.1-.2-1.5-.6-.4-.4-.6-.9-.6-1.5h0Z"/>
      <polygon class="st0" points="498.2 379.5 506.2 387.9 509.2 385.3 501.1 376.7 498.2 379.5"/>
      <path class="st0" d="M482.5,379.1c-.8,1-1.5,2-2.3,2.9h0c-.8.9-1.5,1.8-2.3,2.8l-1.3,1.6,3,2.7,7.4-9.1-3.2-2.4-1.2,1.5h0Z"/>
    </g>
  </g>
  <g>
    <path class="st0" d="M266.8,253.4c6.3-17.3,22.9-29.7,42.4-29.7h181.6c20.2,0,37.3,13.3,43.1,31.6,10-9,16.1-22.5,16.1-40,0-30-24.3-51.7-54.3-51.7l-3.8-.2c.7-4.1,1.2-8.4,1.2-12.7,0-41.4-33.6-75-75-75s-59,19.9-69.9,47.9c-5.9-4.1-13-6.5-20.7-6.5-20,0-36.2,16.2-36.2,36.2s0,1.1,0,1.6c-23.8,5.8-41.5,27.2-41.5,52.7s6.5,35.3,16.8,45.9h0Z"/>
    <g>
      <circle class="st0" cx="492.8" cy="264" r="7.3"/>
      <path class="st0" d="M490.8,237.7h-181.6c-17.1,0-31.1,14-31.1,31.1s14,31.1,31.1,31.1h181.6c17.1,0,31.1-14,31.1-31.1s-14-31.1-31.1-31.1h0ZM492.8,278.3c-7.9,0-14.3-6.4-14.3-14.3s6.4-14.3,14.3-14.3,14.3,6.4,14.3,14.3-6.4,14.3-14.3,14.3Z"/>
    </g>
  </g>
</svg>